<svg width="332" height="69" viewBox="0 0 332 69" fill="none" xmlns="http://www.w3.org/2000/svg">
<g clip-path="url(#clip0_50_197)">
<path d="M23.7227 3.10076C25.2882 3.28097 26.0849 3.38384 26.7659 4.01005C27.4282 4.619 27.6467 5.41266 27.7188 5.67246C27.8855 6.27991 27.8569 6.78073 27.8194 7.46927C27.7885 8.02205 27.7132 8.57146 27.5941 9.11215C27.1436 11.1898 26.0413 14.6392 25.9385 14.9614C25.3528 16.8255 24.7669 18.6896 24.1807 20.5538C23.1641 23.7877 21.9049 27.4309 20.6254 31.0298C21.0173 30.9607 21.356 30.9487 21.5264 31.0298C21.5795 31.0536 21.627 31.0883 21.6658 31.1316C21.7046 31.1749 21.7338 31.2259 21.7517 31.2813C21.8613 31.6312 21.5407 31.7874 21.2831 31.9128C20.8602 32.1077 20.4641 32.356 20.1043 32.6516L20.0217 32.7222C18.7452 36.2858 17.4823 39.7338 16.4529 42.6178C17.157 42.9587 17.9077 43.1932 18.6807 43.3139L31.3942 7.21473C33.5162 12.9713 35.6378 18.7262 37.7593 24.4793C38.8691 22.8379 40.0817 21.7086 40.6809 21.5381C40.7608 21.5103 40.846 21.5006 40.9302 21.5098C41.0144 21.519 41.0954 21.5469 41.1674 21.5915C41.5128 21.8167 41.3807 22.1982 41.229 22.6382C40.9688 23.3354 40.8122 24.067 40.7642 24.8096C40.7209 25.3031 40.762 25.8003 40.8859 26.2798C41.0042 26.712 41.0393 27.1628 40.9895 27.6081C40.8716 28.7727 40.3963 29.4537 39.9766 30.0544L39.8707 30.2046L43.414 39.8156C43.5604 39.9658 43.7144 40.1265 43.869 40.3089C43.9509 40.4028 44.0192 40.4816 44.0567 40.5342L44.0965 40.583L45.3925 44.097L44.6822 43.2575L45.1019 44.3951H41.1922L42.0031 44.7705H36.3417L36.2531 44.7187C36.0608 44.6061 35.8659 44.4982 35.6681 44.3951H24.0733C23.9519 44.4771 23.8356 44.5664 23.7249 44.6624C23.3495 44.9935 23.1505 45.2939 22.9418 45.6115C22.8539 45.7459 22.7623 45.8856 22.6572 46.0275C22.4916 46.2535 22.3026 46.4614 22.0933 46.6477H39.8617L39.0876 46.2722H43.4748L43.5785 46.3586C43.6933 46.454 43.809 46.5508 43.9238 46.6477H45.8235C46.1914 47.4916 46.5499 48.3556 46.8988 49.2396C47.0489 49.371 47.1826 49.4934 47.356 49.6436C47.4146 49.6947 48.815 50.9051 50.2333 51.8962C51.1644 52.5425 52.134 53.1312 53.1369 53.6592C52.9247 53.4071 52.7257 53.1442 52.5407 52.8716C52.2464 52.4368 51.464 51.282 51.1411 49.6384C50.9949 48.9217 50.9716 48.1854 51.072 47.4609C51.1269 46.9593 51.1599 46.6559 50.9279 46.2415C50.6531 45.7496 50.2769 45.6228 49.7565 45.4478C49.2362 45.2729 48.607 45.0596 47.971 44.4266C46.717 43.1764 45.8926 40.797 46.684 38.9784C47.0392 38.163 47.5933 37.765 48.1302 37.3806C48.5109 37.1072 48.881 36.8437 49.1739 36.4217C44.7338 25.0487 40.5335 13.5748 36.5729 2L21.3139 2.00451C21.3805 2.33739 21.4468 2.67002 21.5129 3.0024C22.2509 2.9835 22.9893 3.01637 23.7227 3.10076Z" fill="#272727"/>
<path d="M50.3467 41.301C50.6471 41.738 51.0488 42.0338 51.4888 42.2966C51.0473 41.1878 50.6075 40.0781 50.1695 38.9673C49.9698 39.348 49.8436 39.7106 49.903 40.1919C49.9576 40.5924 50.11 40.9733 50.3467 41.301Z" fill="#272727"/>
<path d="M15.3363 49.7901C15.6787 49.3749 15.7763 49.067 15.901 48.6781C15.9841 48.397 16.0895 48.1231 16.2163 47.8589C16.7735 46.7326 17.8547 45.8256 19.445 45.1618C18.224 44.9882 17.0462 44.5879 15.9723 43.9814C15.3799 45.6634 14.8926 47.0968 14.5652 48.169C14.5029 48.3725 14.2979 49.0483 13.993 49.9515C13.8984 50.2304 13.7983 50.5219 13.6927 50.8263L13.7595 50.8023C14.3317 50.589 14.8302 50.4051 15.3363 49.7901Z" fill="#272727"/>
<path d="M67.0121 65.7364C65.7649 65.8491 64.5085 65.6767 63.3377 65.2324C62.167 64.788 61.1126 64.0833 60.2543 63.1714C60.2243 63.1961 60.1909 63.2163 60.1552 63.2315C60.1014 63.2569 60.0428 63.2705 59.9833 63.2713C59.6829 63.2713 59.4411 62.8741 59.0357 62.154C58.6084 61.3934 57.9664 60.1537 57.133 58.465C56.6082 57.8694 56.022 57.3308 55.3842 56.8582C54.4682 56.1824 53.7706 55.8821 52.962 55.5404C52.0102 55.1553 51.0931 54.6895 50.2206 54.1483C49.5088 53.7021 48.8231 53.2155 48.167 52.6909C48.4112 53.4037 48.6473 54.1278 48.875 54.8632C49.0875 55.0807 49.2828 55.3144 49.4592 55.5622L49.4967 55.6148L50.3317 58.5852L49.8519 58.2938C50.0021 58.88 50.149 59.4729 50.2926 60.0726C50.4573 60.7734 50.61 61.466 50.7507 62.1503C50.7785 62.6706 50.7905 64.146 49.8098 64.9082C49.5565 65.0977 49.2653 65.2306 48.9561 65.2979C48.233 65.4871 46.8019 65.7747 44.4953 65.7371L44.2069 66.8139L67.3274 66.7726C67.2228 66.4277 67.1177 66.0823 67.0121 65.7364Z" fill="#272727"/>
<path d="M19.3091 65.7156C18.086 65.6495 17.4748 65.6172 16.9064 65.5106C16.338 65.404 15.2267 65.199 14.5524 64.6366C14.192 64.3363 13.3616 63.4397 13.8016 59.6006C13.9848 57.993 14.2964 56.6963 14.8363 54.958L14.6515 55.0331L14.632 55.0414C14.3453 55.1576 14.0708 55.3023 13.8128 55.4731C13.3908 55.7532 12.8134 56.1369 12.4297 56.8847C12.1414 57.4631 12.0237 58.1116 12.0904 58.7544L12.2368 60.3244L11.3921 58.9909C11.1563 58.6121 10.9612 58.2094 10.8101 57.7895C10.2095 59.1095 9.6891 60.0984 8.98104 61.1804C7.6783 63.1687 6.77727 63.9586 5.87323 64.4999C4.85882 65.1051 3.86543 65.3732 3.3999 65.4963C2.34047 65.7762 1.24495 65.8949 0.150172 65.8485L0 66.8163L20.8094 66.7675C20.7433 66.4357 20.6777 66.1033 20.6126 65.7704C20.3093 65.7614 19.8573 65.7486 19.3091 65.7156Z" fill="#272727"/>
<path d="M14.2558 29.7459C14.3204 29.7932 13.9337 30.2482 13.8241 31.0494C13.7701 31.4627 13.7956 31.8824 13.8992 32.2861C14.3422 31.8273 14.6808 31.2781 14.8918 30.6762C15.2845 29.5237 15.0135 28.6256 15.2222 28.5738C15.4542 28.519 16.0174 29.5732 16.1855 30.716C16.2719 31.3139 16.2525 31.9224 16.1285 32.5136C16.4234 32.1312 16.7554 31.7788 17.1196 31.4616C17.7203 30.9398 18.4134 30.5035 18.4997 30.5989C18.5748 30.6822 18.098 31.0622 17.8292 31.8266C17.7114 32.1645 17.6512 32.5199 17.6512 32.8778C18.1891 32.4066 18.8013 32.0278 19.4631 31.7567C20.4024 31.3745 21.3545 31.2777 21.3913 31.3956C21.4243 31.5007 20.6907 31.6696 19.861 32.3649C19.4619 32.7035 19.1139 33.098 18.8278 33.5363C18.2534 34.3877 18.282 34.8307 17.8517 35.8752C17.3719 37.0368 17.0656 37.7786 16.3372 38.3095C15.5728 38.8674 14.3016 39.2233 13.1738 38.6932C13.1738 38.6932 11.9417 38.0925 11.5527 36.816C11.5422 36.783 11.5355 36.7582 11.5302 36.7409C11.305 35.9338 11.2149 34.2916 12.0431 32.4978C12.8457 30.7581 14.1477 29.6671 14.2558 29.7459Z" fill="#272727"/>
<path d="M50.2776 33.6456C50.4691 33.6336 51.1036 35.1188 50.7814 36.7001C50.4511 38.3152 49.3608 38.8543 49.5305 40.2374C49.5926 40.698 49.7669 41.1364 50.0381 41.5138C50.9391 42.8234 52.5993 42.9833 53.45 44.1306C53.6028 44.3345 53.7346 44.5534 53.8435 44.7838C53.9996 45.1458 54.0274 45.4514 54.1889 45.9342C54.3118 46.3185 54.4757 46.6886 54.6777 47.0379C55.2844 48.198 57.3507 49.0825 58.5018 50.0001C60.7499 51.7916 61.0157 54.9115 61.033 55.1472C61.033 55.1472 61.1831 57.2662 60.1604 60.582C60.1544 60.6015 60.1192 60.7141 60.0816 60.8703C60.0436 61.0283 60.014 61.1882 59.993 61.3493C59.8706 62.2849 60.0906 62.8511 60.005 62.8878C59.8856 62.9397 59.2662 61.9313 57.4476 58.2543C56.897 57.6236 56.28 57.0542 55.6072 56.5558C53.7954 55.2148 52.7975 55.3072 50.4188 53.8287C49.4427 53.2213 48.7354 52.6619 48.0235 52.1017C46.5023 50.9004 45.9692 50.2576 44.9773 49.4084C43.6832 48.3093 42.2528 47.3816 40.7214 46.6482H43.3359C43.9253 47.137 44.8331 47.9022 45.9414 48.8888C46.4993 49.3851 46.7073 49.5818 47.1067 49.928C47.1976 50.0031 48.5957 51.2127 50.0148 52.2046C52.0099 53.5982 54.0695 54.5848 55.3752 55.1532C54.3797 54.4955 53.5223 53.6494 52.8516 52.6626C52.5227 52.1746 51.8094 51.1061 51.509 49.5653C51.1246 47.6093 51.8184 47.0695 51.2545 46.0603C50.5952 44.88 49.4397 45.3628 48.2353 44.1621C47.0309 42.9615 46.3394 40.7119 47.0279 39.1314C47.6984 37.5899 49.2106 37.7145 49.8812 35.8531C50.3137 34.666 50.1207 33.6561 50.2776 33.6456Z" fill="#272727"/>
<path d="M46.7546 57.6282C47.3012 57.478 47.7465 57.2527 48.4605 57.3278C48.9052 57.3804 49.3329 57.5304 49.713 57.7671C49.5258 57.1033 49.3393 56.4398 49.1536 55.7766C48.7856 55.2536 48.3253 54.8022 47.7953 54.4445C46.5038 53.5818 45.358 53.7004 43.4628 53.4481C41.1209 53.1358 39.8827 52.9976 38.7467 52.1822C36.8507 50.8239 37.1879 49.2741 35.5548 48.2432C34.6777 47.689 33.1753 47.2475 30.4894 48.0509C32.4349 48.3062 33.2947 49.0226 33.7181 49.6278C34.1859 50.2893 33.999 50.6264 34.6319 52.0703C35.0922 53.1215 35.4579 53.9565 36.3004 54.6585C37.2014 55.4094 38.2075 55.6406 38.6678 55.7405C39.882 56.0026 40.09 55.6549 41.045 55.9523C42.2164 56.3179 42.073 56.8946 43.2593 57.3902C44.1303 57.7536 45.4774 57.9751 46.7546 57.6282Z" fill="#272727"/>
<path d="M36.648 42.9409C35.4164 42.5288 34.1631 42.1846 32.8937 41.91C32.1308 39.972 31.009 39.1964 30.4256 38.881C29.888 38.5904 29.3196 38.4267 26.9266 38.2105C25.8356 38.1114 24.4803 38.0123 22.9155 37.9514C23.2331 38.5461 24.0418 39.8669 25.4286 40.4511C26.0451 40.7109 27.0055 40.9226 27.7 40.9767C28.0409 41.0044 28.4801 41.0322 28.4801 41.0322C28.9051 41.0322 29.1754 40.9902 29.6192 41.1028C30.1676 41.2507 30.6689 41.5369 31.0751 41.934C29.9198 41.8449 28.758 41.8921 27.6137 42.0744C25.916 42.347 25.3483 42.7502 23.5192 43.1827C21.6901 43.6152 20.4234 43.9238 18.8466 43.7173C16.8103 43.45 14.6651 42.3905 13.7408 40.6688C13.3796 39.993 13.0995 39.0237 13.4224 38.7526C13.5846 38.6167 13.8046 38.7353 14.201 38.4981C14.4038 38.3756 14.5759 38.2084 14.7041 38.0093C14.773 37.9024 14.8278 37.787 14.867 37.6661C14.5562 37.9567 14.207 38.0543 14.0036 37.9267C13.8707 37.8426 13.8263 37.6789 13.8008 37.585C13.6829 37.1465 13.9322 36.7869 13.8609 36.7456C13.7896 36.7043 13.4719 37.0009 13.2429 37.3643C13.1326 37.5385 13.0672 37.6849 12.9696 37.6804C12.9516 37.6804 12.8728 37.6714 12.7631 37.4266C12.6548 37.1818 12.6039 36.9154 12.6145 36.6479C12.4365 36.9385 12.239 37.3718 12.3607 37.8073C12.4403 38.0934 12.5957 38.1617 12.7751 38.5108C13.0072 38.9614 12.9666 39.2805 13.0364 39.8113C13.1113 40.3612 13.2661 40.8973 13.496 41.4024C13.21 41.5565 12.8897 41.6356 12.5649 41.6322C12.1998 41.6041 11.8367 41.5539 11.4777 41.482C11.4071 41.4692 10.2365 41.2567 9.35573 41.8995C8.67995 42.3905 8.42766 43.1316 8.3736 43.3051C8.14834 44.0221 8.36534 44.4006 8.04472 45.0155C7.87448 45.3324 7.62966 45.603 7.33141 45.8039C7.59881 45.7594 7.85537 45.6646 8.08752 45.5246C8.47797 45.2851 8.57858 45.0246 8.9375 44.5943C9.0734 44.4321 9.52767 43.8862 10.1028 43.5514C10.6397 43.239 11.0084 43.2698 11.5505 43.1489C12.1294 43.0198 12.9418 42.7111 13.8601 41.8935C14.5562 42.6068 16.0752 43.9628 18.4231 44.577C19.4675 44.8497 20.5503 44.9451 21.6263 44.8594C18.333 45.6485 17.0791 46.9565 16.5505 48.028C16.175 48.7916 16.2419 49.2812 15.6239 50.0313C14.5307 51.3603 13.4134 50.9233 12.1925 52.1495C10.9866 53.3606 10.8642 55.0027 10.8364 55.3782C10.7103 57.0638 11.4168 58.3283 11.7082 58.7923C11.634 58.0784 11.7642 57.3582 12.0836 56.7154C12.5033 55.8978 13.1348 55.4683 13.5928 55.1627C13.8767 54.9755 14.1786 54.817 14.4939 54.6896C16.13 54.0033 17.3036 53.5115 17.9478 52.9626C19.6748 51.497 18.0702 49.2624 19.8895 47.6143C20.732 46.8506 21.4941 46.9535 22.3479 45.8024C22.6933 45.3369 22.887 44.8909 23.4697 44.3758C23.6386 44.2256 24.1086 43.8374 24.9549 43.5071C29.5651 41.7095 34.0403 43.2683 34.0403 43.2683C34.8729 43.5667 35.6758 43.9423 36.4385 44.3901H40.2919C39.1049 43.8402 37.8884 43.3564 36.648 42.9409Z" fill="#272727"/>
<path d="M40.9609 21.9051C41.1982 22.0612 40.5052 22.9292 40.3895 24.7861C40.2934 26.3344 40.7334 26.4042 40.6148 27.5696C40.3963 29.7215 38.8383 30.0819 38.9479 31.8262C39.0102 32.8226 39.523 32.716 39.954 34.2988C40.3805 35.8621 39.8489 36.8389 40.4143 37.8646C40.9797 38.8903 41.9528 38.6583 43.5844 40.5534C43.6595 40.6443 43.7264 40.7209 43.7662 40.7689L44.3008 42.2241C43.9674 41.8283 43.5778 41.4835 43.1444 41.2007C42.6769 40.8983 42.1652 40.6703 41.6277 40.5249C40.0043 40.0474 38.4944 38.442 38.1122 38.0358C35.7094 35.4829 35.4031 31.4575 36.1855 28.6035C36.3614 27.9803 36.5923 27.374 36.8755 26.7917C38.2691 23.7935 40.566 21.6453 40.9609 21.9051Z" fill="#272727"/>
</g>
<path d="M89.8569 22.7839H107.511L107.977 24.1163H89.1907L89.8569 22.7839ZM122.834 41.6373C123.011 41.6373 123.1 41.7705 123.1 42.037C123.1 42.3035 123.011 42.4367 122.834 42.4367C121.99 42.4367 120.68 42.3923 118.903 42.3035C117.127 42.2147 115.839 42.1702 115.039 42.1702C114.062 42.1702 112.818 42.2147 111.308 42.3035C109.887 42.3923 108.799 42.4367 108.044 42.4367C107.866 42.4367 107.778 42.3035 107.778 42.037C107.778 41.7705 107.866 41.6373 108.044 41.6373C109.732 41.6373 110.931 41.4818 111.642 41.1709C112.397 40.8601 112.774 40.3049 112.774 39.5055C112.774 38.8393 112.508 37.9066 111.975 36.7074L97.1851 5.46281L98.8505 3.3976L85.9263 33.976C85.3045 35.4861 84.9937 36.7296 84.9937 37.7067C84.9937 40.3271 87.1699 41.6373 91.5224 41.6373C91.7444 41.6373 91.8555 41.7705 91.8555 42.037C91.8555 42.3035 91.7444 42.4367 91.5224 42.4367C90.7229 42.4367 89.5682 42.3923 88.0582 42.3035C86.3705 42.2147 84.9048 42.1702 83.6613 42.1702C82.5065 42.1702 81.1741 42.2147 79.6641 42.3035C78.3317 42.3923 77.2214 42.4367 76.3331 42.4367C76.111 42.4367 76 42.3035 76 42.037C76 41.7705 76.111 41.6373 76.3331 41.6373C77.5767 41.6373 78.6204 41.4152 79.4642 40.9711C80.3525 40.4825 81.1741 39.6609 81.9291 38.5062C82.7286 37.307 83.5946 35.5971 84.5273 33.3764L98.5841 0.19986C98.6729 0.0666201 98.8283 0 99.0504 0C99.2725 0 99.4057 0.0666201 99.4501 0.19986L115.172 33.3098C116.682 36.5964 117.97 38.817 119.036 39.9718C120.102 41.0821 121.368 41.6373 122.834 41.6373Z" fill="#272727"/>
<path d="M131.637 2.33169L133.236 2.46493L132.57 35.1752C132.526 37.5291 132.925 39.1946 133.769 40.1716C134.613 41.1487 136.101 41.6373 138.233 41.6373C138.321 41.6373 138.366 41.7705 138.366 42.037C138.366 42.3035 138.321 42.4367 138.233 42.4367C136.989 42.4367 136.034 42.4145 135.368 42.3701L131.771 42.3035L128.306 42.3701C127.685 42.4145 126.796 42.4367 125.642 42.4367C125.553 42.4367 125.508 42.3035 125.508 42.037C125.508 41.7705 125.553 41.6373 125.642 41.6373C127.507 41.6373 128.839 41.1487 129.639 40.1716C130.483 39.1501 130.927 37.4847 130.971 35.1752L131.637 2.33169ZM177.139 41.6373C177.272 41.6373 177.338 41.7705 177.338 42.037C177.338 42.3035 177.272 42.4367 177.139 42.4367C175.762 42.4367 174.674 42.4145 173.874 42.3701L169.277 42.3035L165.014 42.3701C164.303 42.4145 163.304 42.4367 162.016 42.4367C161.927 42.4367 161.883 42.3035 161.883 42.037C161.883 41.7705 161.927 41.6373 162.016 41.6373C163.526 41.6373 164.636 41.5262 165.347 41.3042C166.102 41.0377 166.59 40.5936 166.812 39.9718C167.079 39.35 167.168 38.3729 167.079 37.0405L165.813 4.86324L168.012 1.79873L150.691 41.9704C150.602 42.148 150.424 42.2369 150.158 42.2369C149.936 42.2369 149.736 42.148 149.558 41.9704L132.836 6.32886C132.081 4.68558 131.149 3.48643 130.038 2.73141C128.973 1.97638 127.662 1.59887 126.108 1.59887C126.019 1.59887 125.975 1.46563 125.975 1.19915C125.975 0.932676 126.019 0.799437 126.108 0.799437L128.573 0.866056C129.017 0.910469 129.639 0.932675 130.438 0.932675C131.238 0.932675 131.904 0.910469 132.437 0.866056C133.014 0.821644 133.458 0.799437 133.769 0.799437C134.347 0.799437 134.813 1.0215 135.168 1.46563C135.568 1.86535 136.123 2.79803 136.834 4.26366L152.023 36.2411L149.958 39.7053L166.213 2.46493C166.701 1.3546 167.368 0.799437 168.211 0.799437C168.434 0.799437 168.744 0.821644 169.144 0.866056C169.588 0.910469 170.166 0.932675 170.876 0.932675L174.007 0.866056C174.496 0.821644 175.229 0.799437 176.206 0.799437C176.295 0.799437 176.339 0.932676 176.339 1.19915C176.339 1.46563 176.295 1.59887 176.206 1.59887C173.941 1.59887 172.32 1.93197 171.343 2.59816C170.41 3.21995 169.988 4.4191 170.077 6.19563L171.409 37.0405C171.454 38.4173 171.609 39.4166 171.876 40.0384C172.186 40.6602 172.719 41.0821 173.474 41.3042C174.229 41.5262 175.451 41.6373 177.139 41.6373Z" fill="#272727"/>
<path d="M219.906 0.466336C220.039 0.333098 220.283 0.266479 220.639 0.266479C221.305 0.266479 221.638 0.421924 221.638 0.732815V37.0405C221.638 38.3729 221.771 39.3722 222.038 40.0384C222.348 40.6602 222.904 41.0821 223.703 41.3042C224.503 41.5262 225.746 41.6373 227.434 41.6373C227.567 41.6373 227.634 41.7705 227.634 42.037C227.634 42.3035 227.567 42.4367 227.434 42.4367C226.057 42.4367 224.947 42.4145 224.103 42.3701L219.506 42.3035L214.643 42.3701C213.888 42.4145 212.844 42.4367 211.512 42.4367C211.378 42.4367 211.312 42.3035 211.312 42.037C211.312 41.7705 211.378 41.6373 211.512 41.6373C213.244 41.6373 214.51 41.5262 215.309 41.3042C216.108 41.0821 216.641 40.6602 216.908 40.0384C217.174 39.4166 217.308 38.4173 217.308 37.0405V4.46351L218.573 4.72999L188.661 43.0363C188.528 43.2139 188.261 43.3028 187.862 43.3028C187.195 43.3028 186.862 43.1473 186.862 42.8364V6.19563C186.862 4.86324 186.707 3.88615 186.396 3.26436C186.13 2.64258 185.574 2.22065 184.731 1.99859C183.931 1.73211 182.688 1.59887 181 1.59887C180.911 1.59887 180.867 1.46563 180.867 1.19915C180.867 0.932676 180.911 0.799437 181 0.799437L184.464 0.866056C186.329 0.954881 187.839 0.999294 188.994 0.999294C190.282 0.999294 191.903 0.954881 193.857 0.866056L196.989 0.799437C197.077 0.799437 197.122 0.932676 197.122 1.19915C197.122 1.46563 197.077 1.59887 196.989 1.59887C195.256 1.59887 193.991 1.73211 193.191 1.99859C192.392 2.22065 191.837 2.64258 191.526 3.26436C191.259 3.88615 191.126 4.86324 191.126 6.19563V39.1724L189.927 38.9059L219.906 0.466336Z" fill="#272727"/>
<path d="M253.253 0.19986C253.297 0.0666201 253.43 0 253.652 0C253.919 0 254.074 0.0666201 254.119 0.19986L271.64 42.4367H266.976L251.787 5.66267L253.652 3.3976L237.73 42.4367H235.998L253.253 0.19986ZM232.401 52.6961C232.401 49.0987 232.223 46.234 231.868 44.1022C231.734 43.2584 231.668 42.4367 231.668 41.6373C231.668 41.282 231.712 41.0821 231.801 41.0377C231.89 40.9489 232.09 40.9045 232.401 40.9045H274.637C274.993 40.9045 275.193 40.9489 275.237 41.0377C275.326 41.0821 275.37 41.282 275.37 41.6373C275.37 41.8593 275.326 42.4589 275.237 43.436C274.926 45.9231 274.771 49.0099 274.771 52.6961C274.771 52.9182 274.637 53.0292 274.371 53.0292C274.104 53.0292 273.971 52.9182 273.971 52.6961C273.971 49.1431 273.105 46.5449 271.373 44.9016C269.641 43.2584 266.821 42.4367 262.912 42.4367H242.527C236.265 42.4367 233.133 45.8565 233.133 52.6961C233.133 52.9182 233 53.0292 232.734 53.0292C232.512 53.0292 232.401 52.9182 232.401 52.6961Z" fill="#272727"/>
<path d="M290.757 22.7839H308.411L308.877 24.1163H290.091L290.757 22.7839ZM323.734 41.6373C323.911 41.6373 324 41.7705 324 42.037C324 42.3035 323.911 42.4367 323.734 42.4367C322.89 42.4367 321.579 42.3923 319.803 42.3035C318.026 42.2147 316.738 42.1702 315.939 42.1702C314.962 42.1702 313.718 42.2147 312.208 42.3035C310.787 42.3923 309.699 42.4367 308.944 42.4367C308.766 42.4367 308.677 42.3035 308.677 42.037C308.677 41.7705 308.766 41.6373 308.944 41.6373C310.632 41.6373 311.831 41.4818 312.541 41.1709C313.296 40.8601 313.674 40.3049 313.674 39.5055C313.674 38.8393 313.407 37.9066 312.875 36.7074L298.085 5.46281L299.75 3.3976L286.826 33.976C286.204 35.4861 285.894 36.7296 285.894 37.7067C285.894 40.3271 288.07 41.6373 292.422 41.6373C292.644 41.6373 292.755 41.7705 292.755 42.037C292.755 42.3035 292.644 42.4367 292.422 42.4367C291.623 42.4367 290.468 42.3923 288.958 42.3035C287.27 42.2147 285.805 42.1702 284.561 42.1702C283.406 42.1702 282.074 42.2147 280.564 42.3035C279.232 42.3923 278.121 42.4367 277.233 42.4367C277.011 42.4367 276.9 42.3035 276.9 42.037C276.9 41.7705 277.011 41.6373 277.233 41.6373C278.477 41.6373 279.52 41.4152 280.364 40.9711C281.252 40.4825 282.074 39.6609 282.829 38.5062C283.629 37.307 284.495 35.5971 285.427 33.3764L299.484 0.19986C299.573 0.0666201 299.728 0 299.95 0C300.172 0 300.306 0.0666201 300.35 0.19986L316.072 33.3098C317.582 36.5964 318.87 38.817 319.936 39.9718C321.002 41.0821 322.268 41.6373 323.734 41.6373Z" fill="#272727"/>
<path d="M83.5676 56.9255L82.8334 58.3797L78.9367 65.2979H77.1295V55.4148H78.4567V63.7872L79.1908 62.3329L83.0876 55.4148H84.8948V65.2979H83.5676V56.9255ZM90.9653 65.4108C90.3535 65.4108 89.7934 65.3073 89.2851 65.1002C88.7769 64.8837 88.3392 64.5778 87.9721 64.1825C87.605 63.7872 87.3179 63.3024 87.1109 62.7282C86.9038 62.1541 86.8002 61.4999 86.8002 60.7658V59.9469C86.8002 59.2221 86.9038 58.5726 87.1109 57.9985C87.3179 57.4243 87.605 56.9396 87.9721 56.5443C88.3392 56.1395 88.7769 55.8336 89.2851 55.6265C89.7934 55.4101 90.3535 55.3018 90.9653 55.3018C91.5112 55.3018 92.0053 55.3865 92.4477 55.556C92.8901 55.716 93.276 55.9372 93.6055 56.2195C93.9443 56.4925 94.2173 56.8125 94.4243 57.1796C94.6314 57.5373 94.7726 57.9138 94.8479 58.3091H93.4078C93.3325 58.0832 93.2243 57.8667 93.0831 57.6596C92.9513 57.4526 92.7819 57.269 92.5748 57.109C92.3677 56.949 92.1277 56.8219 91.8547 56.7278C91.5912 56.6243 91.2947 56.5725 90.9653 56.5725C90.5699 56.5725 90.1981 56.6478 89.8499 56.7984C89.511 56.9396 89.2193 57.1561 88.9745 57.4479C88.7298 57.7302 88.5368 58.0832 88.3957 58.5068C88.2545 58.9209 88.1839 59.4009 88.1839 59.9469V60.7658C88.1839 61.3117 88.2545 61.7964 88.3957 62.22C88.5368 62.6341 88.7298 62.9871 88.9745 63.2789C89.2287 63.5613 89.5252 63.7777 89.864 63.9283C90.2029 64.0695 90.5699 64.1401 90.9653 64.1401C91.6241 64.1401 92.1606 63.9519 92.5748 63.5754C92.9889 63.1989 93.2666 62.7141 93.4078 62.1211H94.8479C94.7726 62.5824 94.6314 63.0153 94.4243 63.4201C94.2173 63.8154 93.9443 64.1636 93.6055 64.4648C93.276 64.7566 92.8854 64.9872 92.4336 65.1567C91.9912 65.3261 91.5018 65.4108 90.9653 65.4108ZM95.1992 55.4148H102.823V56.629H99.6748V65.2979H98.3477V56.629H95.1992V55.4148ZM107.554 65.4108C106.923 65.4108 106.349 65.3073 105.831 65.1002C105.313 64.8837 104.866 64.5778 104.49 64.1825C104.123 63.7872 103.836 63.3024 103.629 62.7282C103.422 62.1541 103.318 61.4999 103.318 60.7658V59.9469C103.318 59.2221 103.422 58.5726 103.629 57.9985C103.836 57.4243 104.127 56.9396 104.504 56.5443C104.88 56.1395 105.328 55.8336 105.845 55.6265C106.363 55.4101 106.932 55.3018 107.554 55.3018C108.184 55.3018 108.758 55.4101 109.276 55.6265C109.794 55.8336 110.236 56.1348 110.603 56.5301C110.98 56.9255 111.272 57.4102 111.479 57.9844C111.686 58.5585 111.789 59.2127 111.789 59.9469V60.7658C111.789 61.4905 111.686 62.14 111.479 62.7141C111.272 63.2883 110.98 63.7777 110.603 64.1825C110.227 64.5778 109.78 64.8837 109.262 65.1002C108.744 65.3073 108.175 65.4108 107.554 65.4108ZM107.554 64.1401C107.968 64.1401 108.349 64.0695 108.697 63.9283C109.045 63.7777 109.347 63.5613 109.601 63.2789C109.855 62.9965 110.053 62.6482 110.194 62.2341C110.335 61.8105 110.406 61.3211 110.406 60.7658V59.9469C110.406 59.4009 110.335 58.9209 110.194 58.5068C110.053 58.0832 109.855 57.7302 109.601 57.4479C109.347 57.1561 109.045 56.9396 108.697 56.7984C108.349 56.6478 107.968 56.5725 107.554 56.5725C107.139 56.5725 106.758 56.6478 106.41 56.7984C106.062 56.9396 105.761 57.1514 105.506 57.4337C105.252 57.7161 105.055 58.0691 104.913 58.4926C104.772 58.9162 104.702 59.4009 104.702 59.9469V60.7658C104.702 61.3117 104.772 61.7964 104.913 62.22C105.055 62.6341 105.252 62.9871 105.506 63.2789C105.761 63.5613 106.062 63.7777 106.41 63.9283C106.758 64.0695 107.139 64.1401 107.554 64.1401ZM113.695 55.4148H116.942C118.213 55.4148 119.14 55.6877 119.723 56.2337C120.316 56.7796 120.613 57.5608 120.613 58.5774C120.613 59.5657 120.312 60.3422 119.709 60.9069C119.107 61.4623 118.184 61.7399 116.942 61.7399H115.022V65.2979H113.695V55.4148ZM115.022 56.629V60.5257H116.942C117.761 60.5257 118.349 60.361 118.707 60.0316C119.065 59.7021 119.243 59.2174 119.243 58.5774C119.243 57.9279 119.065 57.4432 118.707 57.1231C118.359 56.7937 117.77 56.629 116.942 56.629H115.022ZM128.599 56.9255L127.864 58.3797L123.968 65.2979H122.16V55.4148H123.488V63.7872L124.222 62.3329L128.118 55.4148H129.926V65.2979H128.599V56.9255ZM133.737 61.2034C133.059 60.9869 132.561 60.6387 132.241 60.1586C131.921 59.6786 131.761 59.0997 131.761 58.422C131.761 57.4902 132.057 56.756 132.65 56.2195C133.243 55.683 134.17 55.4148 135.431 55.4148H138.679V65.2979H137.352V61.4293H135.431C135.356 61.4293 135.286 61.4293 135.22 61.4293C135.154 61.4293 135.083 61.4246 135.008 61.4152L132.947 65.2979H131.478L133.737 61.2034ZM133.144 58.422C133.144 58.9868 133.323 59.4292 133.681 59.7492C134.038 60.0598 134.622 60.2151 135.431 60.2151H137.352V56.629H135.431C134.622 56.629 134.038 56.789 133.681 57.109C133.323 57.4196 133.144 57.8573 133.144 58.422ZM141.575 65.4108C141.283 65.4108 141.043 65.3167 140.855 65.1284C140.676 64.9308 140.586 64.6955 140.586 64.4225C140.586 64.1495 140.676 63.9189 140.855 63.7307C141.043 63.533 141.283 63.4342 141.575 63.4342C141.866 63.4342 142.102 63.533 142.281 63.7307C142.469 63.9189 142.563 64.1495 142.563 64.4225C142.563 64.6955 142.469 64.9308 142.281 65.1284C142.102 65.3167 141.866 65.4108 141.575 65.4108ZM150.582 60.8222H149.326V65.2979H147.999V55.4148H149.326V59.608H150.611L153.59 55.4148H155.199L151.74 60.201L155.482 65.2979H153.816L150.582 60.8222ZM159.657 62.5165L156.114 55.4148H157.61L160.363 61.0622L162.721 55.4148H164.161L159.883 65.2979H158.443L159.657 62.5165ZM163.819 64.1401H164.102C164.318 64.1401 164.516 64.0931 164.695 63.9989C164.883 63.9048 165.043 63.7213 165.175 63.4483C165.307 63.1753 165.405 62.7988 165.471 62.3188C165.547 61.8388 165.584 61.2081 165.584 60.4269V55.4148H172.079V65.2979H170.752V56.629H166.911V60.4269C166.911 61.434 166.85 62.2576 166.728 62.8977C166.605 63.5377 166.427 64.046 166.191 64.4225C165.956 64.799 165.664 65.0578 165.316 65.199C164.968 65.3402 164.563 65.4108 164.102 65.4108H163.819V64.1401ZM174.333 55.4148H175.661V58.9727H177.581C178.823 58.9727 179.746 59.2551 180.348 59.8198C180.95 60.3751 181.252 61.1517 181.252 62.1494C181.252 63.1565 180.955 63.933 180.362 64.479C179.778 65.0249 178.851 65.2979 177.581 65.2979H174.333V55.4148ZM175.661 60.1869V64.0836H177.651C178.451 64.0836 179.021 63.9236 179.36 63.6036C179.708 63.2836 179.882 62.7988 179.882 62.1494C179.882 61.4999 179.703 61.0105 179.346 60.681C178.997 60.3516 178.433 60.1869 177.651 60.1869H175.661ZM180.821 55.4148H188.445V56.629H185.297V65.2979H183.97V56.629H180.821V55.4148ZM192.831 62.5165L189.287 55.4148H190.784L193.537 61.0622L195.895 55.4148H197.335L193.057 65.2979H191.617L192.831 62.5165ZM198.752 55.4148H201.999C203.27 55.4148 204.197 55.6877 204.78 56.2337C205.373 56.7796 205.67 57.5608 205.67 58.5774C205.67 59.5657 205.369 60.3422 204.766 60.9069C204.164 61.4623 203.241 61.7399 201.999 61.7399H200.079V65.2979H198.752V55.4148ZM200.079 56.629V60.5257H201.999C202.818 60.5257 203.406 60.361 203.764 60.0316C204.121 59.7021 204.3 59.2174 204.3 58.5774C204.3 57.9279 204.121 57.4432 203.764 57.1231C203.415 56.7937 202.827 56.629 201.999 56.629H200.079ZM211.95 62.5871H207.94L206.98 65.2979H205.596L209.197 55.4148H210.75L214.35 65.2979H212.91L211.95 62.5871ZM208.378 61.3729H211.512L210.679 59.0009L209.959 56.8972L209.225 59.0009L208.378 61.3729ZM216.47 65.4108C216.178 65.4108 215.938 65.3167 215.75 65.1284C215.571 64.9308 215.482 64.6955 215.482 64.4225C215.482 64.1495 215.571 63.9189 215.75 63.7307C215.938 63.533 216.178 63.4342 216.47 63.4342C216.762 63.4342 216.997 63.533 217.176 63.7307C217.364 63.9189 217.458 64.1495 217.458 64.4225C217.458 64.6955 217.364 64.9308 217.176 65.1284C216.997 65.3167 216.762 65.4108 216.47 65.4108ZM229.191 56.629H224.221V65.2979H222.894V55.4148H230.518V65.2979H229.191V56.629ZM232.78 55.4148H236.027C237.298 55.4148 238.225 55.6877 238.808 56.2337C239.401 56.7796 239.698 57.5608 239.698 58.5774C239.698 59.5657 239.397 60.3422 238.794 60.9069C238.192 61.4623 237.27 61.7399 236.027 61.7399H234.107V65.2979H232.78V55.4148ZM234.107 56.629V60.5257H236.027C236.846 60.5257 237.434 60.361 237.792 60.0316C238.15 59.7021 238.328 59.2174 238.328 58.5774C238.328 57.9279 238.15 57.4432 237.792 57.1231C237.444 56.7937 236.855 56.629 236.027 56.629H234.107ZM245.128 65.4108C244.498 65.4108 243.923 65.3073 243.406 65.1002C242.888 64.8837 242.441 64.5778 242.064 64.1825C241.697 63.7872 241.41 63.3024 241.203 62.7282C240.996 62.1541 240.893 61.4999 240.893 60.7658V59.9469C240.893 59.2221 240.996 58.5726 241.203 57.9985C241.41 57.4243 241.702 56.9396 242.079 56.5443C242.455 56.1395 242.902 55.8336 243.42 55.6265C243.937 55.4101 244.507 55.3018 245.128 55.3018C245.759 55.3018 246.333 55.4101 246.851 55.6265C247.368 55.8336 247.811 56.1348 248.178 56.5301C248.554 56.9255 248.846 57.4102 249.053 57.9844C249.26 58.5585 249.364 59.2127 249.364 59.9469V60.7658C249.364 61.4905 249.26 62.14 249.053 62.7141C248.846 63.2883 248.554 63.7777 248.178 64.1825C247.801 64.5778 247.354 64.8837 246.837 65.1002C246.319 65.3073 245.749 65.4108 245.128 65.4108ZM245.128 64.1401C245.542 64.1401 245.924 64.0695 246.272 63.9283C246.62 63.7777 246.921 63.5613 247.175 63.2789C247.429 62.9965 247.627 62.6482 247.768 62.2341C247.91 61.8105 247.98 61.3211 247.98 60.7658V59.9469C247.98 59.4009 247.91 58.9209 247.768 58.5068C247.627 58.0832 247.429 57.7302 247.175 57.4479C246.921 57.1561 246.62 56.9396 246.272 56.7984C245.924 56.6478 245.542 56.5725 245.128 56.5725C244.714 56.5725 244.333 56.6478 243.985 56.7984C243.636 56.9396 243.335 57.1514 243.081 57.4337C242.827 57.7161 242.629 58.0691 242.488 58.4926C242.347 58.9162 242.276 59.4009 242.276 59.9469V60.7658C242.276 61.3117 242.347 61.7964 242.488 62.22C242.629 62.6341 242.827 62.9871 243.081 63.2789C243.335 63.5613 243.636 63.7777 243.985 63.9283C244.333 64.0695 244.714 64.1401 245.128 64.1401ZM255.081 65.4108C254.469 65.4108 253.909 65.3073 253.401 65.1002C252.893 64.8837 252.455 64.5778 252.088 64.1825C251.721 63.7872 251.434 63.3024 251.227 62.7282C251.02 62.1541 250.916 61.4999 250.916 60.7658V59.9469C250.916 59.2221 251.02 58.5726 251.227 57.9985C251.434 57.4243 251.721 56.9396 252.088 56.5443C252.455 56.1395 252.893 55.8336 253.401 55.6265C253.909 55.4101 254.469 55.3018 255.081 55.3018C255.627 55.3018 256.121 55.3865 256.564 55.556C257.006 55.716 257.392 55.9372 257.721 56.2195C258.06 56.4925 258.333 56.8125 258.54 57.1796C258.747 57.5373 258.889 57.9138 258.964 58.3091H257.524C257.449 58.0832 257.34 57.8667 257.199 57.6596C257.067 57.4526 256.898 57.269 256.691 57.109C256.484 56.949 256.244 56.8219 255.971 56.7278C255.707 56.6243 255.411 56.5725 255.081 56.5725C254.686 56.5725 254.314 56.6478 253.966 56.7984C253.627 56.9396 253.335 57.1561 253.091 57.4479C252.846 57.7302 252.653 58.0832 252.512 58.5068C252.37 58.9209 252.3 59.4009 252.3 59.9469V60.7658C252.3 61.3117 252.37 61.7964 252.512 62.22C252.653 62.6341 252.846 62.9871 253.091 63.2789C253.345 63.5613 253.641 63.7777 253.98 63.9283C254.319 64.0695 254.686 64.1401 255.081 64.1401C255.74 64.1401 256.277 63.9519 256.691 63.5754C257.105 63.1989 257.383 62.7141 257.524 62.1211H258.964C258.889 62.5824 258.747 63.0153 258.54 63.4201C258.333 63.8154 258.06 64.1636 257.721 64.4648C257.392 64.7566 257.001 64.9872 256.55 65.1567C256.107 65.3261 255.618 65.4108 255.081 65.4108ZM260.728 55.4148H263.904C265.137 55.4148 266.022 55.6501 266.559 56.1207C267.095 56.5819 267.363 57.2267 267.363 58.055C267.363 58.5068 267.26 58.9162 267.053 59.2833C266.846 59.641 266.526 59.9327 266.093 60.1586C266.629 60.3751 267.02 60.6857 267.265 61.0905C267.519 61.4952 267.646 61.9705 267.646 62.5165C267.646 63.4107 267.378 64.0978 266.841 64.5778C266.305 65.0578 265.42 65.2979 264.187 65.2979H260.728V55.4148ZM262.055 60.8081V64.0836H264.187C264.949 64.0836 265.486 63.9472 265.796 63.6742C266.107 63.4012 266.262 62.9918 266.262 62.4459C266.262 61.9 266.107 61.4905 265.796 61.2175C265.486 60.9446 264.949 60.8081 264.187 60.8081H262.055ZM262.055 56.629V59.6221H263.904C264.667 59.6221 265.203 59.4951 265.514 59.2409C265.824 58.9774 265.98 58.6056 265.98 58.1256C265.98 57.6455 265.824 57.2784 265.514 57.0243C265.203 56.7607 264.667 56.629 263.904 56.629H262.055ZM269.483 55.4148H275.625V56.629H270.81V59.608H274.777V60.8222H270.81V64.0836H275.625V65.2979H269.483V55.4148ZM277.383 55.4148H278.71V64.0836H282.226V55.4148H283.553V64.0836H287.069V55.4148H288.396V64.0836H289.525V67.4157H288.198V65.2979H277.383V55.4148ZM290.937 55.4148H297.078V56.629H292.264V59.608H296.231V60.8222H292.264V64.0836H297.078V65.2979H290.937V55.4148ZM305.275 60.8222H300.164V65.2979H298.837V55.4148H300.164V59.608H305.275V55.4148H306.602V65.2979H305.275V60.8222ZM315.299 56.9255L314.565 58.3797L310.668 65.2979H308.861V55.4148H310.188V63.7872L310.922 62.3329L314.819 55.4148H316.626V65.2979H315.299V56.9255ZM318.885 55.4148H325.026V56.629H320.212V59.608H324.179V60.8222H320.212V64.0836H325.026V65.2979H318.885V55.4148ZM327.42 65.4108C327.128 65.4108 326.888 65.3167 326.7 65.1284C326.521 64.9308 326.432 64.6955 326.432 64.4225C326.432 64.1495 326.521 63.9189 326.7 63.7307C326.888 63.533 327.128 63.4342 327.42 63.4342C327.712 63.4342 327.947 63.533 328.126 63.7307C328.314 63.9189 328.409 64.1495 328.409 64.4225C328.409 64.6955 328.314 64.9308 328.126 65.1284C327.947 65.3167 327.712 65.4108 327.42 65.4108Z" fill="#272727"/>
<defs>
<clipPath id="clip0_50_197">
<rect width="67.3304" height="64.8158" fill="white" transform="translate(0 2)"/>
</clipPath>
</defs>
</svg>
