<svg width="20" height="15" viewBox="0 0 20 15" fill="none" xmlns="http://www.w3.org/2000/svg">
<path d="M19 0.00658374C18.9148 -0.00219458 18.8289 -0.00219458 18.7437 0.00658374H1.24375C1.13159 0.00831195 1.02017 0.0251296 0.9125 0.0565837L9.94375 9.05033L19 0.00658374Z" fill="#B70000"/>
<path d="M19.925 0.875334L10.825 9.93783C10.5908 10.1706 10.274 10.3013 9.94375 10.3013C9.61352 10.3013 9.2967 10.1706 9.0625 9.93783L0.04375 0.944084C0.0160246 1.04598 0.00132418 1.15099 0 1.25658V13.7566C0 14.0881 0.131696 14.406 0.366117 14.6405C0.600537 14.8749 0.918479 15.0066 1.25 15.0066H18.75C19.0815 15.0066 19.3995 14.8749 19.6339 14.6405C19.8683 14.406 20 14.0881 20 13.7566V1.25658C19.995 1.12637 19.9697 0.997731 19.925 0.875334ZM2.10625 13.7566H1.2375V12.8628L5.78125 8.35658L6.6625 9.23783L2.10625 13.7566ZM18.7375 13.7566H17.8625L13.3062 9.23783L14.1875 8.35658L18.7312 12.8628L18.7375 13.7566Z" fill="#B70000"/>
</svg>
