<svg xmlns="http://www.w3.org/2000/svg" width="896.71" height="863.22" viewBox="0 0 896.71 863.22">
  <g>
    <g>
      <path d="M315.94,14.66c20.85,2.4,31.46,3.77,40.53,12.11,8.82,8.11,11.73,18.68,12.69,22.14C371.38,57,371,63.67,370.5,72.84a137.41,137.41,0,0,1-3,21.88c-6,27.67-20.68,73.61-22.05,77.9q-11.7,37.24-23.41,74.48c-13.54,43.07-30.31,91.59-47.35,139.52,5.22-.92,9.73-1.08,12,0a5.53,5.53,0,0,1,3,3.35c1.46,4.66-2.81,6.74-6.24,8.41a72.58,72.58,0,0,0-15.7,9.84l-1.1.94c-17,47.46-33.82,93.38-47.53,131.79a105.38,105.38,0,0,0,29.67,9.27L418.11,69.45q42.39,115,84.77,229.93c14.78-21.86,30.93-36.9,38.91-39.17a7.58,7.58,0,0,1,6.48.71c4.6,3,2.84,8.08.82,13.94a101.41,101.41,0,0,0-6.19,28.92,58,58,0,0,0,1.62,19.58,47.14,47.14,0,0,1,1.38,17.69c-1.57,15.51-7.9,24.58-13.49,32.58l-1.41,2,47.19,128c1.95,2,4,4.14,6.06,6.57,1.09,1.25,2,2.3,2.5,3l.53.65,17.26,46.8-9.46-11.18,5.59,15.15H548.6l10.8,5H484l-1.18-.69q-3.84-2.25-7.79-4.31H320.61a48.38,48.38,0,0,0-4.64,3.56c-5,4.41-7.65,8.41-10.43,12.64-1.17,1.79-2.39,3.65-3.79,5.54a53,53,0,0,1-7.51,8.26H530.88l-10.31-5H579l1.38,1.15c1.53,1.27,3.07,2.56,4.6,3.85h25.3q7.35,16.86,14.32,34.52c2,1.75,3.78,3.38,6.09,5.38.78.68,19.43,16.8,38.32,30A370.52,370.52,0,0,0,707.68,688a127.14,127.14,0,0,1-7.94-10.49c-3.92-5.79-14.34-21.17-18.64-43.06a86,86,0,0,1-.92-29c.73-6.68,1.17-10.72-1.92-16.24-3.66-6.55-8.67-8.24-15.6-10.57s-15.31-5.17-23.78-13.6c-16.7-16.65-27.68-48.34-17.14-72.56,4.73-10.86,12.11-16.16,19.26-21.28,5.07-3.64,10-7.15,13.9-12.77Q566.2,231.23,487.08,0L283.86.06q1.33,6.65,2.65,13.29A210.34,210.34,0,0,1,315.94,14.66Z" fill="#fff"/>
      <path d="M670.52,523.41c4,5.82,9.35,9.76,15.21,13.26q-8.82-22.15-17.57-44.34c-2.66,5.07-4.34,9.9-3.55,16.31A32.78,32.78,0,0,0,670.52,523.41Z" fill="#fff"/>
      <path d="M204.25,636.47c4.56-5.53,5.86-9.63,7.52-14.81a73.13,73.13,0,0,1,4.2-10.91c7.42-15,21.82-27.08,43-35.92a131.77,131.77,0,0,1-46.25-15.72c-7.89,22.4-14.38,41.49-18.74,55.77-.83,2.71-3.56,11.71-7.62,23.74q-1.89,5.57-4,11.65l.89-.32C190.87,647.11,197.51,644.66,204.25,636.47Z" fill="#fff"/>
      <path d="M892.47,848.84a110,110,0,0,1-90-34.16,5.45,5.45,0,0,1-1.32.8,5.55,5.55,0,0,1-2.29.53c-4,0-7.22-5.29-12.62-14.88C780.55,791,772,774.49,760.9,752a150.29,150.29,0,0,0-23.29-21.4c-12.2-9-21.49-13-32.26-17.55a240.24,240.24,0,0,1-36.51-18.54,293.18,293.18,0,0,1-27.35-19.41q4.88,14.24,9.43,28.93a78.3,78.3,0,0,1,7.78,9.31l.5.7,11.12,39.56-6.39-3.88q3,11.71,5.87,23.69,3.29,14,6.1,27.67c.37,6.93.53,26.58-12.53,36.73A29.42,29.42,0,0,1,652,843c-9.63,2.52-28.69,6.35-59.41,5.85l-3.84,14.34,307.92-.55Q894.58,855.75,892.47,848.84Z" fill="#fff"/>
      <path d="M257.16,848.56c-16.29-.88-24.43-1.31-32-2.73s-22.37-4.15-31.35-11.64c-4.8-4-15.86-15.94-10-67.07,2.44-21.41,6.59-38.68,13.78-61.83l-2.46,1-.26.11a61.9,61.9,0,0,0-10.91,5.75c-5.62,3.73-13.31,8.84-18.42,18.8a45.33,45.33,0,0,0-4.52,24.9l1.95,20.91L151.72,759a84.3,84.3,0,0,1-7.75-16c-8,17.58-14.93,30.75-24.36,45.16-17.35,26.48-29.35,37-41.39,44.21-13.51,8.06-26.74,11.63-32.94,13.27A145.38,145.38,0,0,1,2,850.33L0,863.22l277.14-.65q-1.32-6.63-2.62-13.28C270.48,849.17,264.46,849,257.16,848.56Z" fill="#fff"/>
    </g>
    <g>
      <path d="M189.86,369.52c.86.63-4.29,6.69-5.75,17.36a43.56,43.56,0,0,0,1,16.47,58.94,58.94,0,0,0,13.22-21.44c5.23-15.35,1.62-27.31,4.4-28,3.09-.73,10.59,13.31,12.83,28.53a68.75,68.75,0,0,1-.76,23.94A97.71,97.71,0,0,1,228,392.37c8-6.95,17.23-12.76,18.38-11.49,1,1.11-5.35,6.17-8.93,16.35a42.54,42.54,0,0,0-2.37,14,86.21,86.21,0,0,1,24.13-14.93c12.51-5.09,25.19-6.38,25.68-4.81.44,1.4-9.33,3.65-20.38,12.91A72.26,72.26,0,0,0,250.75,420c-7.65,11.34-7.27,17.24-13,31.15-6.39,15.47-10.47,25.35-20.17,32.42-10.18,7.43-27.11,12.17-42.13,5.11,0,0-16.41-8-21.59-25-.14-.44-.23-.77-.3-1-3-10.75-4.2-32.62,6.83-56.51C171.08,383,188.42,368.47,189.86,369.52Z" fill="#fff"/>
      <path d="M669.6,421.46c2.55-.16,11,19.62,6.71,40.68-4.4,21.51-18.92,28.69-16.66,47.11a37.78,37.78,0,0,0,6.76,17c12,17.44,34.11,19.57,45.44,34.85a50.41,50.41,0,0,1,5.24,8.7c2.08,4.82,2.45,8.89,4.6,15.32a75,75,0,0,0,6.51,14.7c8.08,15.45,35.6,27.23,50.93,39.45,29.94,23.86,33.48,65.41,33.71,68.55,0,0,2,28.22-11.62,72.38-.08.26-.55,1.76-1.05,3.84a61.13,61.13,0,0,0-1.18,6.38c-1.63,12.46,1.3,20,.16,20.49-1.59.69-9.84-12.74-34.06-61.71a155,155,0,0,0-24.51-22.62c-24.13-17.86-37.42-16.63-69.1-36.32-13-8.09-22.42-15.54-31.9-23-20.26-16-27.36-24.56-40.57-35.87a263.13,263.13,0,0,0-56.68-36.76h34.82c7.85,6.51,19.94,16.7,34.7,29.84,7.43,6.61,10.2,9.23,15.52,13.84,1.21,1,19.83,17.11,38.73,30.32,26.57,18.56,54,31.7,71.39,39.27a121.86,121.86,0,0,1-33.61-33.17C699.5,668.23,690,654,686,633.48c-5.12-26.05,4.12-33.24-3.39-46.68-8.78-15.72-24.17-9.29-40.21-25.28s-25.25-45.95-16.08-67c8.93-20.53,29.07-18.87,38-43.66C670.08,435.05,667.51,421.6,669.6,421.46Z" fill="#fff"/>
      <path d="M622.68,740.86c7.28-2,13.21-5,22.72-4a40.56,40.56,0,0,1,16.68,5.85q-3.74-13.26-7.45-26.51a70,70,0,0,0-18.09-17.74c-17.2-11.49-32.46-9.91-57.7-13.27-31.19-4.16-47.68-6-62.81-16.86-25.25-18.09-20.76-38.73-42.51-52.46-11.68-7.38-31.69-13.26-67.46-2.56,25.91,3.4,37.36,12.94,43,21,6.23,8.81,3.74,13.3,12.17,32.53,6.13,14,11,25.12,22.22,34.47,12,10,25.4,13.08,31.53,14.41,16.17,3.49,18.94-1.14,31.66,2.82,15.6,4.87,13.69,12.55,29.49,19.15C587.73,742.53,605.67,745.48,622.68,740.86Z" fill="#fff"/>
      <path d="M488.08,545.25a472.11,472.11,0,0,0-50-13.73c-10.16-25.81-25.1-36.14-32.87-40.34-7.16-3.87-14.73-6.05-46.6-8.93-14.53-1.32-32.58-2.64-53.42-3.45,4.23,7.92,15,25.51,33.47,33.29,8.21,3.46,21,6.28,30.25,7,4.54.37,10.39.74,10.39.74,5.66,0,9.26-.56,15.17.94a44.2,44.2,0,0,1,19.39,11.07,196.79,196.79,0,0,0-46.1,1.87c-22.61,3.63-30.17,9-54.53,14.76S272,558.34,251,555.59c-27.12-3.56-55.69-17.67-68-40.6-4.81-9-8.54-21.91-4.24-25.52,2.16-1.81,5.09-.23,10.37-3.39a20.68,20.68,0,0,0,6.7-6.51A19.63,19.63,0,0,0,198,475c-4.14,3.87-8.79,5.17-11.5,3.47-1.77-1.12-2.36-3.3-2.7-4.55-1.57-5.84,1.75-10.63.8-11.18s-5.18,3.4-8.23,8.24c-1.47,2.32-2.34,4.27-3.64,4.21-.24,0-1.29-.12-2.75-3.38A23.36,23.36,0,0,1,168,461.44c-2.37,3.87-5,9.64-3.38,15.44,1.06,3.81,3.13,4.72,5.52,9.37,3.09,6,2.55,10.25,3.48,17.32a75.83,75.83,0,0,0,6.12,21.19,25.57,25.57,0,0,1-12.4,3.06,120.93,120.93,0,0,1-14.48-2c-.94-.17-16.53-3-28.26,5.56-9,6.54-12.36,16.41-13.08,18.72-3,9.55-.11,14.59-4.38,22.78a29.5,29.5,0,0,1-9.5,10.5,28.61,28.61,0,0,0,10.07-3.72c5.2-3.19,6.54-6.66,11.32-12.39,1.81-2.16,7.86-9.43,15.52-13.89,7.15-4.16,12.06-3.75,19.28-5.36,7.71-1.72,18.53-5.83,30.76-16.72,9.27,9.5,29.5,27.56,60.77,35.74a128.49,128.49,0,0,0,42.66,3.76c-43.86,10.51-60.56,27.93-67.6,42.2-5,10.17-4.11,16.69-12.34,26.68-14.56,17.7-29.44,11.88-45.7,28.21-16.06,16.13-17.69,38-18.06,43-1.68,22.45,7.73,39.29,11.61,45.47a50.43,50.43,0,0,1,5-27.66c5.59-10.89,14-16.61,20.1-20.68a68.18,68.18,0,0,1,12-6.3c21.79-9.14,37.42-15.69,46-23,23-19.52,1.63-49.28,25.86-71.23,11.22-10.17,21.37-8.8,32.74-24.13,4.6-6.2,7.18-12.14,14.94-19,2.25-2,8.51-7.17,19.78-11.57,61.4-23.94,121-3.18,121-3.18a189.1,189.1,0,0,1,31.94,14.94h51.32A472.74,472.74,0,0,0,488.08,545.25Z" fill="#fff"/>
      <path d="M545.52,265.1c3.16,2.08-6.07,13.64-7.61,38.37-1.28,20.62,4.58,21.55,3,37.07C538,369.2,517.25,374,518.71,397.23c.83,13.27,7.66,11.85,13.4,32.93,5.68,20.82-1.4,33.83,6.13,47.49s20.49,10.57,42.22,35.81c1,1.21,1.89,2.23,2.42,2.87L590,535.71a70.56,70.56,0,0,0-15.4-13.63,71.67,71.67,0,0,0-20.2-9c-21.62-6.36-41.73-27.74-46.82-33.15-32-34-36.08-87.61-25.66-125.62a145.7,145.7,0,0,1,9.19-24.13C509.67,290.25,540.26,261.64,545.52,265.1Z" fill="#fff"/>
    </g>
  </g>
</svg>
