<svg width="24" height="24" viewBox="0 0 24 24" fill="none" xmlns="http://www.w3.org/2000/svg">
<g clip-path="url(#clip0_107_423)">
<path d="M0 11.52C0 6.0888 0 3.3744 1.6872 1.6872C3.3744 0 6.0888 0 11.52 0H12.48C17.9112 0 20.6256 0 22.3128 1.6872C24 3.3744 24 6.0888 24 11.52V12.48C24 17.9112 24 20.6256 22.3128 22.3128C20.6256 24 17.9112 24 12.48 24H11.52C6.0888 24 3.3744 24 1.6872 22.3128C0 20.6256 0 17.9112 0 12.48V11.52Z" fill="#444444"/>
<path d="M13.9992 0C9.56641 0.0144 7.20721 0.1632 5.68561 1.6848C3.99841 3.372 3.99841 6.0864 3.99841 11.5176V12.4776C3.99841 17.9088 3.99841 20.6232 5.68561 22.3104C7.20721 23.832 9.56641 23.9808 13.9992 23.9952C18.432 23.9808 20.7912 23.832 22.3128 22.3104C24 20.6232 24 17.9088 24 12.4776V11.5176C24 6.0864 24 3.372 22.3128 1.6848C20.7912 0.1656 18.432 0.0168 13.9992 0Z" fill="#B70000"/>
<path d="M16.9344 9.86635C18.1488 10.5671 18.7536 10.9175 18.9576 11.3735C19.1352 11.7719 19.1352 12.2279 18.9576 12.6263C18.7536 13.0847 18.1464 13.4327 16.9344 14.1335L13.6104 16.0535C12.396 16.7543 11.7912 17.1047 11.292 17.0519C10.8576 17.0063 10.464 16.7783 10.2072 16.4255C9.91199 16.0199 9.91199 15.3191 9.91199 13.9199V10.0799C9.91199 8.67835 9.91199 7.97755 10.2072 7.57435C10.464 7.22155 10.8576 6.99355 11.292 6.94795C11.7888 6.89515 12.396 7.24555 13.6104 7.94635L16.9344 9.86635Z" fill="white"/>
</g>
<defs>
<clipPath id="clip0_107_423">
<rect width="24" height="24" fill="white"/>
</clipPath>
</defs>
</svg>
