<svg width="22" height="22" viewBox="0 0 22 22" fill="none" xmlns="http://www.w3.org/2000/svg">
<g clip-path="url(#clip0_107_427)">
<path fill-rule="evenodd" clip-rule="evenodd" d="M3.39003 0H18.61C20.4822 0 22 1.51778 22 3.39003V18.61C22 20.4822 20.4822 22 18.61 22H3.39003C1.51778 22 0 20.4822 0 18.61V3.39003C0 1.51778 1.51778 0 3.39003 0Z" fill="#B70000"/>
<path fill-rule="evenodd" clip-rule="evenodd" d="M10.8154 15.4007H11.7153C11.7153 15.4007 11.9871 15.3707 12.1261 15.2212C12.2538 15.0838 12.2497 14.8259 12.2497 14.8259C12.2497 14.8259 12.2321 13.6184 12.7924 13.4406C13.345 13.2653 14.0544 14.6076 14.8063 15.1238C15.3749 15.5142 15.807 15.4288 15.807 15.4288L17.8177 15.4007C17.8177 15.4007 18.8695 15.3358 18.3707 14.5088C18.3299 14.4413 18.0802 13.8971 16.8757 12.7791C15.6149 11.6089 15.7839 11.7982 17.3026 9.77405C18.2274 8.54134 18.5971 7.78882 18.4816 7.46652C18.3715 7.15945 17.6912 7.24056 17.6912 7.24056L15.4274 7.25456C15.4274 7.25456 15.2594 7.23171 15.135 7.30615C15.0134 7.37894 14.9353 7.54902 14.9353 7.54902C14.9353 7.54902 14.5768 8.50285 14.0991 9.31418C13.0911 11.0259 12.6879 11.1165 12.5231 11.01C12.1398 10.7623 12.2356 10.015 12.2356 9.48388C12.2356 7.82497 12.4872 7.13331 11.7456 6.95427C11.4995 6.89489 11.3183 6.8556 10.6889 6.84919C9.88109 6.84097 9.19753 6.85168 8.8104 7.04132C8.55284 7.16745 8.35414 7.44844 8.47523 7.46461C8.62489 7.48455 8.96368 7.55607 9.1433 7.80048C9.37535 8.1162 9.36724 8.82493 9.36724 8.82493C9.36724 8.82493 9.50058 10.7777 9.05593 11.0202C8.75081 11.1866 8.33219 10.847 7.43344 9.29398C6.97303 8.4985 6.62529 7.61911 6.62529 7.61911C6.62529 7.61911 6.55833 7.45481 6.43873 7.36685C6.29367 7.26029 6.09099 7.22651 6.09099 7.22651L3.93965 7.24056C3.93965 7.24056 3.61678 7.24958 3.49812 7.39002C3.39257 7.51503 3.48969 7.77328 3.48969 7.77328C3.48969 7.77328 5.17384 11.7136 7.08098 13.6993C8.82986 15.5202 10.8154 15.4007 10.8154 15.4007Z" fill="white"/>
</g>
<defs>
<clipPath id="clip0_107_427">
<rect width="22" height="22" fill="white"/>
</clipPath>
</defs>
</svg>
